<svg width="810" height="135" viewBox="0 0 810 135" fill="none" xmlns="http://www.w3.org/2000/svg">
<g style="mix-blend-mode:multiply">
<path d="M81.5155 29.56C81.5155 35 79.5955 39.704 75.7555 43.672C71.9155 47.576 66.3155 50.392 58.9555 52.12C62.9235 53.208 65.9315 55 67.9795 57.496C70.0275 59.928 71.0515 62.744 71.0515 65.944C71.0515 71 69.4515 75.384 66.2515 79.096C63.1155 82.808 58.5075 85.688 52.4275 87.736C46.3475 89.72 39.0195 90.712 30.4435 90.712C27.2435 90.712 24.6835 90.616 22.7635 90.424C22.6995 92.216 21.9315 93.56 20.4595 94.456C18.9875 95.352 17.0995 95.8 14.7955 95.8C12.4915 95.8 10.8915 95.288 9.9955 94.264C9.1635 93.24 8.8115 91.736 8.9395 89.752C9.5155 80.792 10.6355 71.416 12.2995 61.624C13.9635 51.768 16.0755 42.264 18.6355 33.112C19.0835 31.512 19.9795 30.392 21.3235 29.752C22.6675 29.112 24.4275 28.792 26.6035 28.792C30.5075 28.792 32.4595 29.88 32.4595 32.056C32.4595 32.952 32.2675 33.976 31.8835 35.128C30.2195 40.12 28.5555 46.904 26.8915 55.48C25.2275 63.992 24.0435 72.12 23.3395 79.864C26.4115 80.12 28.9075 80.248 30.8275 80.248C39.7875 80.248 46.3475 78.968 50.5075 76.408C54.7315 73.784 56.8435 70.456 56.8435 66.424C56.8435 63.608 55.6275 61.24 53.1955 59.32C50.8275 57.4 46.8275 56.344 41.1955 56.152C39.9155 56.088 39.0195 55.768 38.5075 55.192C37.9955 54.616 37.7395 53.688 37.7395 52.408C37.7395 50.552 38.1235 49.048 38.8915 47.896C39.6595 46.744 41.0675 46.136 43.1155 46.072C47.6595 45.944 51.7555 45.272 55.4035 44.056C59.1155 42.84 62.0275 41.144 64.1395 38.968C66.2515 36.728 67.3075 34.136 67.3075 31.192C67.3075 27.48 65.4835 24.568 61.8355 22.456C58.1875 20.28 52.5875 19.192 45.0355 19.192C38.1875 19.192 31.5635 20.088 25.1635 21.88C18.7635 23.608 13.3235 25.816 8.8435 28.504C6.7955 29.72 5.0675 30.328 3.6595 30.328C2.5075 30.328 1.6115 29.944 0.9715 29.176C0.3955 28.344 0.1075 27.32 0.1075 26.104C0.1075 24.504 0.4275 23.128 1.0675 21.976C1.7715 20.824 3.4035 19.512 5.9635 18.04C11.3395 14.968 17.6435 12.568 24.8755 10.84C32.1075 9.112 39.4995 8.248 47.0515 8.248C58.6355 8.248 67.2755 10.2 72.9715 14.104C78.6675 18.008 81.5155 23.16 81.5155 29.56ZM90.1188 91.48C87.2388 91.48 84.8708 90.168 83.0148 87.544C81.2228 84.856 80.3268 81.528 80.3268 77.56C80.3268 72.76 80.6468 68.376 81.2868 64.408C81.9268 60.376 82.9828 56.12 84.4548 51.64C85.0948 49.72 85.9908 48.344 87.1428 47.512C88.2948 46.68 90.1188 46.264 92.6148 46.264C94.0228 46.264 94.9828 46.488 95.4948 46.936C96.0708 47.384 96.3588 48.056 96.3588 48.952C96.3588 49.464 96.0068 51.192 95.3028 54.136C94.6628 56.504 94.1508 58.648 93.7668 60.568C92.4868 67.288 91.8468 71.768 91.8468 74.008C91.8468 75.352 92.0068 76.312 92.3268 76.888C92.6468 77.4 93.1588 77.656 93.8628 77.656C94.8228 77.656 96.0068 76.696 97.4148 74.776C98.8868 72.856 100.423 69.944 102.023 66.04C103.687 62.136 105.287 57.336 106.823 51.64C107.335 49.72 108.103 48.344 109.127 47.512C110.215 46.68 111.815 46.264 113.927 46.264C115.399 46.264 116.423 46.456 116.999 46.84C117.575 47.16 117.863 47.8 117.863 48.76C117.863 50.36 117.063 54.744 115.463 61.912C113.671 70.104 112.775 75.16 112.775 77.08C112.775 78.296 113.031 79.256 113.543 79.96C114.055 80.6 114.727 80.92 115.559 80.92C116.839 80.92 118.343 80.152 120.071 78.616C121.863 77.016 124.231 74.456 127.175 70.936C127.943 70.04 128.807 69.592 129.767 69.592C130.599 69.592 131.239 69.976 131.687 70.744C132.199 71.512 132.455 72.568 132.455 73.912C132.455 76.472 131.847 78.456 130.631 79.864C127.879 83.256 124.903 86.04 121.703 88.216C118.567 90.392 114.983 91.48 110.951 91.48C107.879 91.48 105.607 90.296 104.135 87.928C102.727 85.56 102.023 82.232 102.023 77.944C100.935 82.296 99.3028 85.656 97.1268 88.024C94.9508 90.328 92.6148 91.48 90.1188 91.48ZM104.135 39.928C103.239 39.928 102.439 39.608 101.735 38.968C101.095 38.264 100.775 37.432 100.775 36.472C100.775 36.024 100.935 35.416 101.255 34.648L110.183 14.68C110.759 13.4 111.495 12.472 112.391 11.896C113.351 11.256 114.407 10.936 115.559 10.936C117.159 10.936 118.567 11.512 119.783 12.664C121.063 13.816 121.703 15.256 121.703 16.984C121.703 18.776 120.999 20.568 119.591 22.36L107.207 38.296C106.375 39.384 105.351 39.928 104.135 39.928ZM170.7 69.592C171.532 69.592 172.172 69.976 172.62 70.744C173.132 71.512 173.388 72.568 173.388 73.912C173.388 76.28 172.78 78.264 171.564 79.864C168.556 83.768 164.812 86.84 160.332 89.08C155.916 91.32 150.924 92.44 145.356 92.44C141.004 92.44 137.228 91.8 134.028 90.52C130.828 89.176 128.364 87.384 126.636 85.144C124.972 82.84 124.14 80.28 124.14 77.464C124.14 73.24 125.836 69.496 129.228 66.232C132.62 62.968 137.484 59.832 143.82 56.824L128.076 57.208C126.668 57.272 125.58 56.792 124.812 55.768C124.108 54.68 123.756 53.4 123.756 51.928C123.756 50.392 124.108 49.048 124.812 47.896C125.58 46.68 126.604 46.072 127.884 46.072C130.828 46.072 134.764 46.296 139.692 46.744C140.716 46.808 142.572 46.936 145.26 47.128C148.012 47.32 150.316 47.416 152.172 47.416C152.812 47.416 154.028 47.16 155.82 46.648C156.14 46.584 156.748 46.424 157.644 46.168C158.604 45.912 159.404 45.784 160.044 45.784C161.068 45.784 161.9 46.232 162.54 47.128C163.244 48.024 163.596 49.4 163.596 51.256C163.596 53.304 163.116 54.904 162.156 56.056C161.196 57.208 159.692 58.232 157.644 59.128C151.82 61.624 146.988 64.312 143.148 67.192C139.308 70.008 137.388 72.824 137.388 75.64C137.388 77.432 138.22 78.904 139.884 80.056C141.548 81.208 144.012 81.784 147.276 81.784C150.86 81.784 154.476 80.888 158.124 79.096C161.836 77.304 165.164 74.584 168.108 70.936C168.876 70.04 169.74 69.592 170.7 69.592ZM178.122 39.928C175.434 39.928 173.418 39.32 172.074 38.104C170.73 36.824 170.058 35.064 170.058 32.824C170.058 30.584 170.922 28.728 172.65 27.256C174.442 25.72 176.65 24.952 179.274 24.952C181.642 24.952 183.562 25.528 185.034 26.68C186.506 27.832 187.242 29.464 187.242 31.576C187.242 34.136 186.41 36.184 184.746 37.72C183.082 39.192 180.874 39.928 178.122 39.928ZM177.354 91.48C173.194 91.48 170.154 90.008 168.234 87.064C166.378 84.12 165.45 80.216 165.45 75.352C165.45 72.472 165.802 68.792 166.506 64.312C167.274 59.768 168.234 55.544 169.386 51.64C169.962 49.592 170.73 48.184 171.69 47.416C172.65 46.648 174.186 46.264 176.298 46.264C179.562 46.264 181.194 47.352 181.194 49.528C181.194 51.128 180.586 54.84 179.37 60.664C177.834 67.704 177.066 72.472 177.066 74.968C177.066 76.888 177.322 78.36 177.834 79.384C178.346 80.408 179.21 80.92 180.426 80.92C181.578 80.92 183.018 80.12 184.746 78.52C186.474 76.92 188.778 74.392 191.658 70.936C192.426 70.04 193.29 69.592 194.25 69.592C195.082 69.592 195.722 69.976 196.17 70.744C196.682 71.512 196.938 72.568 196.938 73.912C196.938 76.472 196.33 78.456 195.114 79.864C188.778 87.608 182.858 91.48 177.354 91.48ZM205.395 91.48C201.619 91.48 198.387 90.552 195.699 88.696C193.075 86.776 191.091 84.28 189.747 81.208C188.403 78.136 187.73 74.84 187.73 71.32C187.73 66.456 188.627 62.136 190.419 58.36C192.275 54.52 194.771 51.544 197.907 49.432C201.043 47.256 204.563 46.168 208.467 46.168C212.243 46.168 215.475 47.128 218.163 49.048C220.851 50.904 222.867 53.368 224.211 56.44C225.555 59.512 226.227 62.808 226.227 66.328C226.227 71.192 225.299 75.544 223.443 79.384C221.587 83.16 219.059 86.136 215.859 88.312C212.723 90.424 209.235 91.48 205.395 91.48ZM206.451 81.112C208.627 81.112 210.451 79.928 211.923 77.56C213.459 75.192 214.227 71.736 214.227 67.192C214.227 63.672 213.587 61.016 212.307 59.224C211.027 57.432 209.491 56.536 207.699 56.536C205.395 56.536 203.475 57.72 201.939 60.088C200.467 62.392 199.731 65.848 199.731 70.456C199.731 74.104 200.371 76.792 201.651 78.52C202.931 80.248 204.531 81.112 206.451 81.112ZM250.058 93.592C246.73 93.592 244.17 92.824 242.378 91.288C240.65 89.752 239.786 88.024 239.786 86.104C239.786 84.44 240.394 83 241.61 81.784C242.826 80.568 244.618 79.96 246.986 79.96C247.818 79.96 248.778 80.056 249.866 80.248C251.018 80.376 251.882 80.472 252.458 80.536C252.394 78.872 252.01 77.304 251.306 75.832C250.666 74.36 249.834 72.952 248.81 71.608C247.786 70.2 246.826 68.984 245.93 67.96C243.946 71.736 241.962 74.872 239.978 77.368C238.058 79.864 235.946 82.232 233.642 84.472C232.49 85.624 231.274 86.2 229.994 86.2C228.97 86.2 228.138 85.848 227.498 85.144C226.858 84.376 226.538 83.448 226.538 82.36C226.538 81.08 226.986 79.896 227.882 78.808L229.13 77.272C232.65 72.92 235.306 69.336 237.098 66.52C238.25 64.664 239.402 62.456 240.554 59.896C241.77 57.336 243.338 53.848 245.258 49.432C246.474 46.616 249.002 45.208 252.842 45.208C254.634 45.208 255.882 45.368 256.586 45.688C257.29 46.008 257.642 46.52 257.642 47.224C257.642 47.608 257.514 48.216 257.258 49.048C257.002 49.88 256.65 50.712 256.202 51.544C255.05 53.848 254.474 55.8 254.474 57.4C254.474 58.36 254.794 59.416 255.434 60.568C256.138 61.72 257.194 63.16 258.602 64.888C260.65 67.576 262.186 69.88 263.21 71.8C264.298 73.656 264.842 75.704 264.842 77.944C264.842 80.632 264.202 83.192 262.922 85.624C261.706 87.992 259.978 89.912 257.738 91.384C255.498 92.856 252.938 93.592 250.058 93.592ZM369.789 33.784C369.789 39.224 368.381 44.216 365.565 48.76C362.749 53.304 358.653 57.016 353.277 59.896C347.901 62.776 341.501 64.472 334.077 64.984L329.949 88.12C328.349 97.016 323.997 101.464 316.893 101.464C312.989 101.464 309.373 100.312 306.045 98.008C302.781 95.704 300.157 92.184 298.173 87.448C296.189 82.712 295.197 76.888 295.197 69.976C295.197 56.984 297.277 45.976 301.437 36.952C305.661 27.864 311.293 21.08 318.333 16.6C325.437 12.056 333.245 9.784 341.757 9.784C347.773 9.784 352.861 10.84 357.021 12.952C361.245 15.064 364.413 17.944 366.525 21.592C368.701 25.176 369.789 29.24 369.789 33.784ZM335.805 55.096C348.925 53.432 355.485 46.616 355.485 34.648C355.485 30.424 354.077 27 351.261 24.376C348.509 21.688 344.221 20.344 338.397 20.344C331.805 20.344 326.045 22.424 321.117 26.584C316.253 30.744 312.477 36.536 309.789 43.96C307.165 51.32 305.853 59.736 305.853 69.208C305.853 73.176 306.237 76.696 307.005 79.768C307.837 82.84 308.861 85.24 310.077 86.968C311.357 88.632 312.573 89.464 313.725 89.464C315.325 89.464 316.541 87.256 317.373 82.84L320.541 64.696C318.045 64.312 316.957 64.152 317.277 64.216C315.357 63.896 314.109 63.32 313.533 62.488C312.957 61.592 312.669 60.472 312.669 59.128C312.669 57.72 313.053 56.6 313.821 55.768C314.653 54.936 315.773 54.52 317.181 54.52C317.821 54.52 318.301 54.552 318.621 54.616C320.157 54.872 321.341 55.032 322.173 55.096C323.005 50.104 324.189 43.416 325.725 35.032C326.109 32.856 326.973 31.32 328.317 30.424C329.725 29.464 331.357 28.984 333.213 28.984C335.325 28.984 336.829 29.4 337.725 30.232C338.685 31 339.165 32.248 339.165 33.976C339.165 35 339.101 35.832 338.973 36.472L335.805 55.096ZM410.674 69.592C411.506 69.592 412.146 69.976 412.594 70.744C413.106 71.512 413.362 72.568 413.362 73.912C413.362 76.472 412.754 78.456 411.538 79.864C409.17 82.744 405.81 85.4 401.458 87.832C397.17 90.264 392.562 91.48 387.634 91.48C380.914 91.48 375.698 89.656 371.986 86.008C368.274 82.36 366.418 77.368 366.418 71.032C366.418 66.616 367.346 62.52 369.202 58.744C371.058 54.904 373.618 51.864 376.882 49.624C380.21 47.384 383.954 46.264 388.114 46.264C391.826 46.264 394.802 47.384 397.042 49.624C399.282 51.8 400.402 54.776 400.402 58.552C400.402 62.968 398.802 66.776 395.602 69.976C392.466 73.112 387.122 75.608 379.57 77.464C381.17 80.408 384.21 81.88 388.69 81.88C391.57 81.88 394.834 80.888 398.482 78.904C402.194 76.856 405.394 74.2 408.082 70.936C408.85 70.04 409.714 69.592 410.674 69.592ZM386.482 55.672C384.114 55.672 382.098 57.048 380.434 59.8C378.834 62.552 378.034 65.88 378.034 69.784V69.976C381.81 69.08 384.786 67.736 386.962 65.944C389.138 64.152 390.226 62.072 390.226 59.704C390.226 58.488 389.874 57.528 389.17 56.824C388.53 56.056 387.634 55.672 386.482 55.672ZM421.386 55.384C421.258 58.584 421.194 61.08 421.194 62.872C421.194 67.48 421.418 71.096 421.866 73.72C422.378 76.28 423.178 78.136 424.266 79.288C425.418 80.376 426.986 80.92 428.97 80.92C429.994 80.92 431.21 80.6 432.618 79.96C434.026 79.32 435.306 78.488 436.458 77.464C437.162 76.824 437.866 76.504 438.57 76.504C439.338 76.504 439.946 76.952 440.394 77.848C440.906 78.68 441.162 79.704 441.162 80.92C441.162 82.136 440.906 83.32 440.394 84.472C439.946 85.624 439.242 86.584 438.282 87.352C434.954 90.104 431.178 91.48 426.954 91.48C420.874 91.48 416.426 88.952 413.609 83.896C410.794 78.776 409.386 72.12 409.386 63.928C409.386 61.112 409.482 58.264 409.674 55.384H405.93C404.01 55.384 402.698 55.032 401.994 54.328C401.354 53.624 401.034 52.504 401.034 50.968C401.034 47.384 402.474 45.592 405.354 45.592H410.826C411.914 38.552 413.578 32.12 415.818 26.296C418.058 20.472 420.746 15.832 423.882 12.376C427.082 8.92 430.506 7.192 434.154 7.192C436.842 7.192 438.954 8.376 440.49 10.744C442.026 13.112 442.794 16.088 442.794 19.672C442.794 29.592 438.634 38.232 430.314 45.592H441.066C442.09 45.592 442.826 45.816 443.274 46.264C443.722 46.712 443.946 47.544 443.946 48.76C443.946 53.176 440.33 55.384 433.098 55.384H421.386ZM431.562 16.408C430.602 16.408 429.514 17.624 428.298 20.056C427.146 22.424 426.026 25.752 424.938 30.04C423.914 34.264 423.05 38.968 422.346 44.152C426.122 40.888 428.938 37.24 430.794 33.208C432.714 29.112 433.674 25.4 433.674 22.072C433.674 18.296 432.97 16.408 431.562 16.408ZM551.152 11.416C552.944 11.672 554.16 12.216 554.8 13.048C555.504 13.88 555.856 14.968 555.856 16.312C555.856 20.728 553.488 22.776 548.752 22.456L545.392 22.168C541.616 21.848 537.84 21.592 534.064 21.4C530.352 21.208 526.448 21.112 522.352 21.112H518.032C517.264 30.584 516.464 39.224 515.632 47.032L532.144 46.744C534.512 46.744 536.08 47.16 536.848 47.992C537.68 48.824 538.096 49.944 538.096 51.352C538.096 53.528 537.456 55.256 536.176 56.536C534.896 57.752 533.072 58.36 530.704 58.36H514.288L513.712 62.488C512.368 73.048 509.488 80.568 505.072 85.048C500.72 89.528 494.704 91.768 487.024 91.768C482.672 91.768 478.672 90.84 475.024 88.984C471.376 87.064 468.688 84.76 466.96 82.072C466.256 80.984 465.904 79.672 465.904 78.136C465.904 76.6 466.256 75.256 466.96 74.104C467.728 72.952 468.656 72.376 469.744 72.376C470.512 72.376 471.248 72.632 471.952 73.144C472.72 73.656 473.68 74.648 474.832 76.12C477.904 80.152 481.712 82.168 486.256 82.168C489.904 82.168 492.944 80.696 495.376 77.752C497.872 74.744 499.472 70.04 500.176 63.64L500.752 58.36H496.144C494.672 58.36 493.392 57.944 492.304 57.112C491.28 56.28 490.768 55.096 490.768 53.56C490.768 51.576 491.28 50.072 492.304 49.048C493.328 47.96 494.832 47.416 496.816 47.416C498.608 47.416 500.368 47.384 502.096 47.32C502.864 40.28 503.696 31.736 504.592 21.688C497.68 22.328 492.816 23.448 490 25.048C487.184 26.648 485.776 29.016 485.776 32.152C485.776 34.328 486.416 36.408 487.696 38.392C488.08 38.968 488.272 39.544 488.272 40.12C488.272 41.272 487.632 42.296 486.352 43.192C485.072 44.024 483.632 44.44 482.032 44.44C480.304 44.44 478.832 43.928 477.616 42.904C476.848 42.264 476.112 40.952 475.408 38.968C474.704 36.984 474.352 34.776 474.352 32.344C474.352 24.408 478.416 18.648 486.544 15.064C494.736 11.48 506.672 9.68799 522.352 9.68799C533.232 9.68799 542.832 10.264 551.152 11.416ZM545.768 91.48C543.336 91.48 541.608 90.2 540.584 87.64C539.624 85.08 539.144 80.984 539.144 75.352C539.144 67.032 540.328 59.128 542.696 51.64C543.272 49.784 544.2 48.44 545.48 47.608C546.824 46.712 548.68 46.264 551.048 46.264C552.328 46.264 553.224 46.424 553.736 46.744C554.248 47.064 554.504 47.672 554.504 48.568C554.504 49.592 554.024 51.896 553.064 55.48C552.424 58.04 551.912 60.28 551.528 62.2C551.144 64.12 550.824 66.488 550.568 69.304C552.68 63.8 555.048 59.32 557.672 55.864C560.296 52.408 562.856 49.944 565.352 48.472C567.912 47 570.248 46.264 572.36 46.264C576.52 46.264 578.6 48.344 578.6 52.504C578.6 53.336 578.312 55.352 577.736 58.552C577.224 61.112 576.968 62.712 576.968 63.352C576.968 65.592 577.768 66.712 579.368 66.712C581.16 66.712 583.464 65.304 586.28 62.488C587.112 61.656 587.976 61.24 588.872 61.24C589.704 61.24 590.344 61.624 590.792 62.392C591.304 63.096 591.56 64.056 591.56 65.272C591.56 67.64 590.92 69.496 589.64 70.84C587.848 72.696 585.736 74.296 583.304 75.64C580.936 76.92 578.408 77.56 575.72 77.56C572.328 77.56 569.736 76.696 567.944 74.968C566.216 73.24 565.352 70.904 565.352 67.96C565.352 67 565.448 66.04 565.64 65.08C565.768 63.8 565.832 62.936 565.832 62.488C565.832 61.464 565.48 60.952 564.776 60.952C563.816 60.952 562.536 62.04 560.936 64.216C559.4 66.328 557.864 69.144 556.328 72.664C554.792 76.184 553.544 79.896 552.584 83.8C551.88 86.808 551.048 88.856 550.088 89.944C549.192 90.968 547.752 91.48 545.768 91.48ZM595.215 39.928C592.527 39.928 590.511 39.32 589.167 38.104C587.823 36.824 587.151 35.064 587.151 32.824C587.151 30.584 588.015 28.728 589.743 27.256C591.535 25.72 593.743 24.952 596.367 24.952C598.735 24.952 600.655 25.528 602.127 26.68C603.599 27.832 604.335 29.464 604.335 31.576C604.335 34.136 603.503 36.184 601.839 37.72C600.175 39.192 597.967 39.928 595.215 39.928ZM594.447 91.48C590.287 91.48 587.247 90.008 585.327 87.064C583.471 84.12 582.543 80.216 582.543 75.352C582.543 72.472 582.895 68.792 583.599 64.312C584.367 59.768 585.327 55.544 586.479 51.64C587.055 49.592 587.823 48.184 588.783 47.416C589.743 46.648 591.279 46.264 593.391 46.264C596.655 46.264 598.287 47.352 598.287 49.528C598.287 51.128 597.679 54.84 596.463 60.664C594.927 67.704 594.159 72.472 594.159 74.968C594.159 76.888 594.415 78.36 594.927 79.384C595.439 80.408 596.303 80.92 597.519 80.92C598.671 80.92 600.111 80.12 601.839 78.52C603.567 76.92 605.871 74.392 608.751 70.936C609.519 70.04 610.383 69.592 611.343 69.592C612.175 69.592 612.815 69.976 613.263 70.744C613.775 71.512 614.031 72.568 614.031 73.912C614.031 76.472 613.423 78.456 612.207 79.864C605.871 87.608 599.951 91.48 594.447 91.48ZM649.08 69.592C649.912 69.592 650.552 69.976 651 70.744C651.512 71.512 651.768 72.568 651.768 73.912C651.768 76.472 651.16 78.456 649.944 79.864C647.576 82.744 644.216 85.4 639.864 87.832C635.576 90.264 630.968 91.48 626.04 91.48C619.32 91.48 614.104 89.656 610.392 86.008C606.68 82.36 604.824 77.368 604.824 71.032C604.824 66.616 605.752 62.52 607.608 58.744C609.464 54.904 612.024 51.864 615.288 49.624C618.616 47.384 622.36 46.264 626.52 46.264C630.232 46.264 633.208 47.384 635.448 49.624C637.688 51.8 638.808 54.776 638.808 58.552C638.808 62.968 637.208 66.776 634.008 69.976C630.872 73.112 625.528 75.608 617.976 77.464C619.576 80.408 622.616 81.88 627.096 81.88C629.976 81.88 633.24 80.888 636.888 78.904C640.6 76.856 643.8 74.2 646.488 70.936C647.256 70.04 648.12 69.592 649.08 69.592ZM624.888 55.672C622.52 55.672 620.504 57.048 618.84 59.8C617.24 62.552 616.44 65.88 616.44 69.784V69.976C620.216 69.08 623.192 67.736 625.368 65.944C627.544 64.152 628.632 62.072 628.632 59.704C628.632 58.488 628.28 57.528 627.576 56.824C626.936 56.056 626.04 55.672 624.888 55.672ZM650.768 91.48C648.336 91.48 646.608 90.2 645.584 87.64C644.624 85.08 644.144 80.984 644.144 75.352C644.144 67.032 645.328 59.128 647.696 51.64C648.272 49.784 649.2 48.44 650.48 47.608C651.824 46.712 653.68 46.264 656.048 46.264C657.328 46.264 658.224 46.424 658.736 46.744C659.248 47.064 659.504 47.672 659.504 48.568C659.504 49.592 659.024 51.896 658.064 55.48C657.424 58.04 656.912 60.28 656.528 62.2C656.144 64.12 655.824 66.488 655.568 69.304C657.68 63.8 660.048 59.32 662.672 55.864C665.296 52.408 667.856 49.944 670.352 48.472C672.912 47 675.248 46.264 677.36 46.264C681.52 46.264 683.6 48.344 683.6 52.504C683.6 55 682.896 59.512 681.488 66.04C680.272 71.608 679.664 75.288 679.664 77.08C679.664 79.64 680.592 80.92 682.448 80.92C683.728 80.92 685.232 80.152 686.96 78.616C688.752 77.016 691.12 74.456 694.064 70.936C694.832 70.04 695.696 69.592 696.656 69.592C697.488 69.592 698.128 69.976 698.576 70.744C699.088 71.512 699.344 72.568 699.344 73.912C699.344 76.472 698.736 78.456 697.52 79.864C694.768 83.256 691.792 86.04 688.592 88.216C685.456 90.392 681.872 91.48 677.84 91.48C674.576 91.48 672.112 90.552 670.448 88.696C668.784 86.776 667.952 84.024 667.952 80.44C667.952 78.648 668.4 75.448 669.296 70.84C670.128 66.808 670.544 64.024 670.544 62.488C670.544 61.464 670.192 60.952 669.488 60.952C668.656 60.952 667.472 62.04 665.936 64.216C664.464 66.328 662.928 69.144 661.328 72.664C659.792 76.184 658.544 79.896 657.584 83.8C656.88 86.808 656.048 88.856 655.088 89.944C654.192 90.968 652.752 91.48 650.768 91.48ZM746.105 69.592C746.937 69.592 747.577 69.976 748.025 70.744C748.537 71.512 748.793 72.568 748.793 73.912C748.793 76.472 748.185 78.456 746.969 79.864C744.345 83.064 741.465 85.816 738.329 88.12C735.193 90.36 732.089 91.48 729.017 91.48C724.153 91.48 720.441 88.632 717.881 82.936C715.193 86.328 712.825 88.6 710.777 89.752C708.793 90.904 706.457 91.48 703.769 91.48C699.865 91.48 696.633 90.04 694.073 87.16C691.577 84.216 690.329 80.408 690.329 75.736C690.329 70.616 691.417 65.88 693.593 61.528C695.769 57.112 698.745 53.528 702.521 50.776C706.361 47.96 710.649 46.296 715.385 45.784C716.601 33.368 718.905 22.776 722.297 14.008C725.753 5.17599 730.265 0.759995 735.833 0.759995C738.585 0.759995 740.857 2.008 742.649 4.504C744.505 7 745.433 10.776 745.433 15.832C745.433 23 743.673 31.384 740.153 40.984C736.633 50.584 731.929 60.44 726.041 70.552C726.297 74.264 726.841 76.92 727.673 78.52C728.569 80.12 729.689 80.92 731.033 80.92C732.761 80.92 734.521 80.152 736.313 78.616C738.105 77.08 740.505 74.52 743.513 70.936C744.281 70.04 745.145 69.592 746.105 69.592ZM734.777 10.168C733.561 10.168 732.345 12.344 731.129 16.696C729.913 20.984 728.857 26.616 727.961 33.592C727.129 40.568 726.521 47.864 726.137 55.48C733.305 39.864 736.889 27.32 736.889 17.848C736.889 15.416 736.665 13.528 736.217 12.184C735.833 10.84 735.353 10.168 734.777 10.168ZM707.129 81.784C708.345 81.784 709.561 81.304 710.777 80.344C711.993 79.32 713.529 77.464 715.385 74.776C714.745 71.32 714.425 67.448 714.425 63.16C714.425 61.624 714.489 59.128 714.617 55.672C711.097 56.76 708.153 59.128 705.785 62.776C703.481 66.36 702.329 70.36 702.329 74.776C702.329 79.448 703.929 81.784 707.129 81.784ZM777.367 69.592C778.199 69.592 778.839 69.976 779.287 70.744C779.799 71.512 780.055 72.568 780.055 73.912C780.055 76.472 779.447 78.456 778.231 79.864C775.479 83.256 772.471 86.04 769.207 88.216C766.007 90.392 762.359 91.48 758.263 91.48C752.631 91.48 748.439 88.92 745.687 83.8C742.999 78.68 741.655 72.056 741.655 63.928C741.655 56.12 742.647 47.224 744.631 37.24C746.679 27.256 749.655 18.68 753.559 11.512C757.527 4.34399 762.231 0.759995 767.671 0.759995C770.743 0.759995 773.143 2.2 774.871 5.08C776.663 7.896 777.559 11.96 777.559 17.272C777.559 24.888 775.447 33.72 771.223 43.768C766.999 53.816 761.271 63.768 754.039 73.624C754.487 76.248 755.223 78.136 756.247 79.288C757.271 80.376 758.615 80.92 760.279 80.92C762.903 80.92 765.207 80.184 767.191 78.712C769.175 77.176 771.703 74.584 774.775 70.936C775.543 70.04 776.407 69.592 777.367 69.592ZM765.559 10.264C764.087 10.264 762.423 12.92 760.567 18.232C758.711 23.544 757.079 30.136 755.671 38.008C754.263 45.88 753.495 53.432 753.367 60.664C757.911 53.176 761.527 45.688 764.215 38.2C766.903 30.648 768.247 23.768 768.247 17.56C768.247 12.696 767.351 10.264 765.559 10.264ZM805.896 46.264C807.368 46.264 808.392 46.456 808.968 46.84C809.544 47.224 809.832 47.864 809.832 48.76C809.832 50.296 809 55.768 807.336 65.176C805.864 74.2 805 79.544 804.744 81.208C802.376 97.656 799.112 110.68 794.952 120.28C790.792 129.88 785.256 134.68 778.344 134.68C775.08 134.68 772.424 133.656 770.376 131.608C768.328 129.624 767.303 127 767.303 123.736C767.303 120.728 767.976 117.656 769.32 114.52C770.728 111.384 773.288 107.768 777 103.672C780.776 99.64 786.088 95 792.936 89.752L793.224 87.544C793.672 85.176 794.184 81.784 794.76 77.368C793.48 81.976 791.688 85.496 789.384 87.928C787.08 90.296 784.648 91.48 782.088 91.48C779.208 91.48 776.84 90.168 774.984 87.544C773.192 84.856 772.296 81.528 772.296 77.56C772.296 72.76 772.616 68.376 773.256 64.408C773.896 60.376 774.952 56.12 776.424 51.64C777.064 49.72 777.96 48.344 779.112 47.512C780.264 46.68 782.088 46.264 784.584 46.264C785.992 46.264 786.952 46.488 787.464 46.936C788.04 47.384 788.328 48.056 788.328 48.952C788.328 49.464 787.976 51.192 787.272 54.136C786.632 56.504 786.12 58.648 785.736 60.568C785.224 63.192 784.776 65.72 784.392 68.152C784.008 70.52 783.816 72.472 783.816 74.008C783.816 76.44 784.488 77.656 785.832 77.656C786.792 77.656 787.976 76.696 789.384 74.776C790.856 72.856 792.392 69.944 793.992 66.04C795.656 62.136 797.256 57.336 798.792 51.64C799.304 49.72 800.072 48.344 801.096 47.512C802.184 46.68 803.784 46.264 805.896 46.264ZM779.4 125.368C781 125.368 782.792 123.512 784.776 119.8C786.76 116.088 788.744 109.912 790.728 101.272C785.8 105.432 782.216 109.208 779.976 112.6C777.8 116.056 776.712 119.064 776.712 121.624C776.712 122.712 776.904 123.608 777.288 124.312C777.736 125.016 778.44 125.368 779.4 125.368Z" fill="#A40C0C"/>
</g>
</svg>
